<?xml version="1.0" encoding="utf-8"?>
<!-- Generator: Adobe Illustrator 18.1.1, SVG Export Plug-In . SVG Version: 6.00 Build 0)  -->
<svg version="1.1" id="Layer_1" xmlns="http://www.w3.org/2000/svg" xmlns:xlink="http://www.w3.org/1999/xlink" x="0px" y="0px"
	 viewBox="0 0 142 70" enable-background="new 0 0 142 70" xml:space="preserve">
<g>
	<path fill="#EE334E" d="M134.1,42.7c-1.3,0-2.1-1.3-2.1-3.1c0-1.7,0.8-2.9,2.1-2.9c1.3,0,2.2,1,2.2,3.1
		C136.4,41.5,135.5,42.7,134.1,42.7 M127,33.1v17.6h5.1v-5.8c0.9,1.1,1.9,1.7,3.3,1.7c2.9,0,6-1.9,6-7c0-3.6-1.9-6.8-5.8-6.8
		c-1.5,0-3.3,0.8-4.1,2.3h-0.1v-2H127z M124.7,33.1h-5.1v6.3c0,2-0.4,3.2-1.9,3.2c-1.3,0-1.9-0.6-1.9-2.4v-7.1h-5.1v8
		c0,3.8,1.9,5.5,4.7,5.5c2.2,0,3.4-0.5,4.7-2.3v2h4.8L124.7,33.1L124.7,33.1z M93.8,39.9c0,4.5,3.2,6.8,7.4,6.8
		c4.2,0,7.4-2.3,7.4-7.1c0-4.1-2.8-6.8-7.4-6.8C96.8,32.7,93.8,35.3,93.8,39.9 M101.2,36.3c1.3-0.1,2.2,1.4,2.2,3.3
		c0,2.5-0.8,3.5-2.2,3.5c-1.3,0-2.2-1.1-2.2-3.5C98.9,38.1,99.5,36.3,101.2,36.3 M83.7,46.3h5.1v-4.5c0-2.9,1-3.8,3.2-3.8
		c0.4,0,0.7,0.1,1,0.2v-5.2c-0.2,0-0.4-0.1-0.7-0.1c-2,0-3.3,1-4,3h-0.1v-2.7h-4.7L83.7,46.3L83.7,46.3z M80.7,36.3h-7.9v3.9h2.6
		c-0.3,1.3-1.8,2.1-3,2.1c-3,0-3.7-2.3-3.7-4.9c0-3.2,1.1-5.3,3.4-5.3c1.5,0,2.6,0.8,3,2.3h5.6c-0.7-4.4-4.2-6.7-8.4-6.7
		c-5.8,0-9.3,4-9.3,9.7c0,6.2,4.1,9.2,8.6,9.2c2.8,0,4.4-1.1,5.3-2.2l0.2,1.8H81v-10H80.7z"/>
	<polygon fill="#EE334E" points="35.3,27.6 35.3,36.7 27.3,27.6 21.1,27.6 21.1,46 27.3,46 27.3,37 35.1,46 35.3,45.8 35.3,46 
		41.5,46 41.5,27.6 	"/>
	<path fill="#EE334E" d="M9.6,39.7c-1.6,0-2.9-1.3-2.9-2.9c0-1.6,1.3-2.9,2.9-2.9h9.8l-5.5-6.3H9.6c-5.1,0-9.1,4.1-9.1,9.2
		c0,5.1,4.1,9.2,9.1,9.2h9.8l-5.5-6.3H9.6V39.7z"/>
</g>
<g>
	<g>
		<g>
			<g>
				<g>
					<path fill="#B0B2B3" d="M56.3,0c0.3-0.1,0.7,0,1,0.1c0.2,0.1,0.3,0.2,0.6,0.3c0.4,0.2,0.7,0.5,1,0.8c0.1,0.2,0.2,0.1,0.4,0.4
						c0,0.1,0.1,0.2,0.1,0.2c0.1,0.2,0.1,0.4,0.3,0.5c0,0.1,0.1-0.1,0.3,0.2c0.4,0.3,0.1,0.8,0.2,1.3v2.1c0,0.3,0.5,0.5,0.3,0.9
						c-0.3,0.4-0.4,0.9-0.4,1.3c0,0.5,0.1,0.8,0,1.2c-0.2,0.2-0.7,0.2-0.8,0.5c-0.1,0.2,0,0.5-0.1,0.8c-0.1,0.2-0.2,0.2-0.3,0.4
						s-0.1,0.5,0,0.7c0.1,0.2,0.3,0.2,0.1,0.5c-0.3,0.4-0.2,0.5-0.3,0.8c0,0.2-0.2,0.3-0.3,0.5c-0.1,0.1-0.1,0.2-0.1,0.3
						c-0.1,0.2-0.4,0.4-0.6,0.6c-0.1,0.2-0.1,0.4-0.1,0.5c-0.1,0.3,0.4,0.5,0.1,0.8c-0.2,0.3-0.4,0.7-0.5,1.1
						c-0.1,0.2,0.3,0.5-0.1,0.6c-0.8,0.1-0.4,1.1-0.5,1.6c-0.1,0.4-0.3,0.9-0.5,1c-0.3,0.2-0.2,0.3-0.4,0.5
						c-0.1,0.1-0.3,0.2-0.4,0.3c-0.1,0.2-0.1,0.3-0.1,0.5c0.1,0.2,0,1.1-0.6,1.4c-0.2,0.1-0.5,0.2-0.6,0.4L54,23.5
						c0,0.3-0.4,0.6-0.6,1c-0.1,0.2,0,0.5-0.1,0.6c-0.4,0.5,0.2,1,0.1,1.5c-0.1,0.2,0,0.5,0.1,0.7c0,0.1-0.1,0.2,0,0.3
						c0.1,0.2,0.1,0.3,0.1,0.5c0.2,0.3,0.3,0.1,0.4,0.4c0.1,0.3,0.1,0.7,0.1,1.1c0,0.2-0.1,0.2-0.1,0.5c0,0.5,0.1,1.2,0,1.7
						c-0.1,0.5,0.8,0.7,0.4,1.1c-0.1,0.2-0.5,0.4-0.4,0.8c0.1,0.3,0,0.7,0,1.1C54,34.8,54,35,53.6,35.2c-0.4,0.4-0.7,0.7-1.3,0.9
						c-0.4,0.2,0,0.8-0.5,0.8c-0.3,0.1-0.5,0-0.9,0.1c-0.2,0-0.6,0.2-0.7,0.1c-0.2-0.2-0.4-0.3-0.7-0.3c-0.1,0-0.2,0-0.2-0.1
						c-0.1-0.2-0.1-0.5,0.1-0.5c0.4,0.1,0.7-0.2,0.8-0.4c0.1-0.2,0.3-0.5,0.3-0.8c0.1-0.2,0.2-0.3,0.5-0.4c0.1,0,0.4-0.1,0.4-0.2
						c0.2-0.2,0-0.5,0.1-0.6c0-0.2,0.1-0.4,0.2-0.8c0-0.2,0.1-0.4,0.1-0.7c0-0.1,0-0.2-0.1-0.3c-0.1-0.2-0.1-0.3,0-0.5
						c0-0.2,0.1-0.2,0.1-0.4c-0.1-0.3,0.2-0.6,0-0.9c0-0.2-0.1-0.3-0.1-0.5c0-0.2-0.1-0.3-0.1-0.4c-0.1-0.2-0.1-0.1-0.1-0.2
						c-0.2-0.2-0.1-0.5-0.1-0.6c0-0.4,0.1-0.8-0.1-1.1c-0.2-0.2-0.4,0.2-0.4,0.5c-0.1,0.1-0.4,0.1-0.5,0.3c0,0.4-0.1,0.7-0.2,1
						c-0.1,0.3,0,0.8-0.4,0.8c-0.4,0-0.7-0.2-0.9,0.2c-0.1,0.3,0.2,0.6,0,0.9c-0.1,0.3-0.3,0.7-0.6,0.8c-0.2,0.2-0.5,0.1-0.5,0.1
						c-0.2,0.1-0.1-0.3-0.3-0.7c-0.1-0.1-0.3-0.2-0.3-0.5s-0.1-0.5-0.2-0.8c-0.1-0.2-0.2-0.2-0.4-0.3c-0.1-0.1-0.4-0.1-0.4,0.1
						c-0.1,0.1-0.3,0.3-0.3,0.5c-0.1,0.2,0,0.4-0.1,0.5c-0.2,0.2-0.6,0.1-0.7,0.5c-0.1,0.2-0.2,0.4-0.4,0.5c-0.2,0.1-0.3,0-0.3-0.2
						s0.2-0.3,0.4-0.5c0.1-0.2-0.1-0.4,0.1-0.6c0.4-0.2,0.3-0.7,0.4-1c0.1-0.2,0.3-0.1,0.3-0.4c0-0.2,0.1-0.3,0.1-0.5
						c0.1-0.3,0.4-0.3,0.5-0.8c0.1-0.4,0.7-0.5,0.7-1c0-0.2,0-0.2,0.1-0.3c0.1-0.2,0.6-0.1,0.7-0.5c0-0.4,0.4-0.5,0.4-0.8
						c0.1-0.4-0.1-1,0.3-1.3c0.2-0.3,0.7-0.6,0.6-1.1c0-0.2,0.2-0.4,0.2-0.7c0-0.2,0-0.5-0.1-0.7c-0.1-0.5,0-0.9,0-1.4
						c-0.1-0.2,0-0.3-0.1-0.4c-0.2,0-0.5,0-0.6-0.2c-0.1-0.4,0.1-0.8,0-1.1c-0.1-0.2,0-0.3,0-0.5c0-0.5-0.2-0.7-0.1-1.1
						c-0.1-0.2,0.1-0.5,0-0.8c0-0.3,0.1-0.6,0.1-0.9c0-0.3-0.1-0.7-0.1-1c0.1-0.2,0.7-0.2,0.4-0.6c0-0.2,0.4-0.2,0.4-0.5
						c-0.1-0.5,0.4-0.8,0.7-1.1c0.2-0.5,0.6-0.8,1.3-0.8c0.4,0.1,0.7-0.1,0.7,0.2c0.1,0.2,0.1,0.5,0,0.8c-0.1,0.3,0,0.2-0.1,0.7
						c-0.1,0.3-0.2,0.3-0.3,0.4c-0.1,0.1-0.2,0.2-0.3,0.4l-0.1,0.3c-0.1,0.4-0.4,0.4-0.4,0.7c0,0.4,0.1,0.8-0.1,1
						c-0.1,0.4,0.4,0.5,0.2,0.8c-0.1,0.3,0.1,0.7,0.1,1.1c0,0.2-0.2,0.3-0.1,0.5c0.1,0.1,0.4,0.1,0.4,0.4c0,0.1,0,0.3,0,0.4
						c0.3,0.3,0.3,0,0.4-0.2c0.1-0.3,0.1-0.6,0.4-0.9c0.3-0.4,0.7-0.7,0.7-1.6c0-0.6,0.7-0.7,0.8-1.2c0.2-0.8,0.9-0.9,0.8-1.5
						c0-0.5,0.3-0.6,0.4-1.1c0-0.4,0.2-0.6,0.3-1c0.1-0.5,0.1-0.8,0.3-1.1c0.3-0.4,0.6,0,0.7-0.5c0,0,0-0.8,0.3-1.4
						c0.8-0.7,0.1-1.4,0.1-1.7c-0.1-0.3-0.4-0.2-0.4-0.5c0-0.5,0.1-1-0.1-1.4c-0.2-0.2-0.4-0.3-0.7-0.1C55.1,5,55,5.2,54.6,5.1
						c-0.3-0.1-0.3-0.5-0.5-0.5c-0.7-0.2-1,0.6-1.4,0.8c-0.3,0.2-0.7,0.2-0.9,0.5l-0.1,0.3c-0.1,0.2-0.3,0.4-0.6,0.5
						c-0.2,0.1-0.6,0.1-0.8,0.3c-0.2,0.2-0.4,0.3-0.6,0.4c-0.1,0.1-0.2,0.1-0.3,0.1c-0.3,0.2,0,0.7-0.4,0.8
						c-0.3,0.1-0.5,0.2-0.8,0.5c-0.2,0.2-0.4,0.2-0.5,0.4c-0.1,0.5-0.7,0.7-1.1,0.8C46,10,46,10.1,45.7,10.3
						c-0.2,0.2-0.5,0.5-0.8,0.5c-0.6,0.3-1,0.9-1.4,1.3c-0.2,0.2-0.5,0.2-0.7,0.5c-0.1,0.1-0.6,0.6-0.8,0.5
						c-0.1-0.1-0.1-0.1-0.1-0.2c0-0.3,0.8-0.5,0.7-0.8c0-0.2-0.1-0.3-0.3-0.4c-0.3-0.2-0.8,0.5-1.2,0.8c-0.5,0.6-1,1.3-1.7,1.8
						c-0.5,0.5-0.8,1-1.5,1.4c0,0-1.6,1.1-1.9,1.8c-0.4,0.8-1.9,2-1.9,2c-0.4,0.5,0,0.8-0.5,1.1c-0.2,0-0.4,0-0.6,0.3
						c-0.1,0.2-0.1,0.6-0.5,0.6c0,0-0.4,0-0.7,0.4c-0.2,0.3-0.6,0.2-1,0.5c-0.2,0.2-0.5,0.2-0.5,0.6c0,0.5,0.1,1.1-0.4,1.2
						c-0.3,0.1-0.6,0.1-0.8-0.2c-0.3-0.5-0.4-1.1-0.2-1.7c0.1-0.2,0.1-0.4,0.3-0.5c0.1-0.2,0.3-0.1,0.4-0.3
						c-0.1-0.5,0.4-0.8,0.7-1.1c0.1-0.2,0.1-0.4,0.1-0.6c0.2-0.3,0.7-0.1,0.8-0.6c0.1-0.5,0.6-0.8,0.7-1.3c0.1-0.2,0-0.2,0.1-0.4
						c0.1-0.2,0.2-0.1,0.3-0.2c0.1-0.2,0.1-0.3,0.4-0.5c0.3-0.2,0.5-0.6,0.7-0.8c0.2-0.2,0.5-0.4,0.7-0.5c0.2-0.2,0.1-0.3,0.3-0.5
						c0.3-0.2,0.7-0.2,0.8-0.5c0-0.5,0.4-0.7,0.6-1c0.1-0.1,0.2-0.2,0.2-0.4c0.1-0.2,0.4-0.4,0.6-0.5c0.4-0.3,0.7-0.6,0.9-1
						c0.1-0.2,0.3-0.2,0.4-0.4c0.3-0.3,0.4-0.6,0.8-0.8c0.5-0.4,0.8-1.3,1.6-1.3c0.3,0,0.1-0.6,0.4-0.8c0.2,0,0.4-0.2,0.6-0.4
						c0-0.5,0.6-0.5,0.8-0.7c0.5-0.5,0.7-1.1,1.4-1.2c0.2,0,0.5-0.3,0.8-0.6c0.3-0.3,0.1-0.5,0.5-0.5c0.5-0.1,0.7-0.3,1-0.5
						c0.1-0.1,0.3-0.1,0.4-0.2s0.2-0.3,0.4-0.2c0.1,0,0.2-0.2,0.3-0.3c0.1-0.2,0-0.4,0.2-0.5c0.3-0.1,0.6-0.2,0.9-0.2
						c0.3-0.2,0.5-0.3,0.7-0.5L49.7,2c0.1-0.2,0.4,0,0.6-0.1c0.6-0.2,0.7-0.4,1.1-0.5c0.6,0,1-0.5,1.6-0.6c0.2-0.1,0.2-0.2,0.4-0.3
						c0.1-0.1,0.2-0.1,0.3,0c0.1,0.2,0.4,0.2,0.6,0.2c0.5-0.4,1.2,0.1,1.7-0.4C55.8,0.3,56.1,0.1,56.3,0 M57.3,2.6
						c-0.1,0.2-0.2,0.4-0.2,0.6c0.1,0.3,0.4,0.5,0.6,0.3c0.1-0.1,0.3-0.2,0.4-0.4C58.1,2.9,57.9,2.2,57.3,2.6 M52.1,4.5
						c0.1,0.1,0.1,0.2,0.3,0.1c0.1-0.1,0.1-0.2,0.1-0.3C52.3,4.2,52.1,4.4,52.1,4.5 M51.2,4.6c-0.1,0.1-0.3,0.2-0.4,0.3
						c0,0.2-0.1,0.4,0.1,0.5c0.2,0.1,0.6-0.1,0.7-0.2c0.1-0.1,0-0.2,0-0.3C51.6,4.7,51.5,4.6,51.2,4.6 M49.4,5.5
						C49.1,5.7,48.9,6,48.5,6c-0.4,0.2-0.7,0.5-0.9,0.8c-0.5,0.5-1,0.5-1.5,1.2c-0.1,0.2-0.7,0.6-0.8,0.8c-0.1,0.2,0,0.4-0.3,0.5
						c-0.6,0-0.9,0.5-1.4,0.6c-0.2,0.1-0.3,0.3-0.3,0.5c-0.1,0.3-0.4,0.3-0.5,0.3c-0.2,0.1-0.4,0.3-0.4,0.5c0,0.2,0.1,0.4,0.3,0.5
						c0.2,0.2,0.5-0.1,0.7-0.2c0.1-0.2,0-0.3,0.1-0.5c0.4-0.2,1.1,0,1.2-0.6c0-0.2,0.3-0.3,0.4-0.4c0.4-0.1,0.7-0.7,1.4-0.9
						C46.9,9,46.6,8.7,47,8.5c0.6-0.2,0.2-0.4,1.1-0.9c0,0,0.4-0.3,0.8-0.4c0.7-0.2,0.8-0.7,1.1-0.8c0.4-0.2,0.6-0.2,0.5-0.5
						C50.3,5.4,49.8,5.1,49.4,5.5 M57.4,10c-0.1,0.1-0.2,0.2-0.2,0.5c0.1,0.2,0.1,0.2,0.4,0.2c0.1-0.1,0.2-0.2,0.1-0.4
						C57.7,10,57.6,10,57.4,10 M41.1,13c-0.1,0.2-0.2,0.3-0.1,0.5H41c0.1-0.1,0.3-0.2,0.3-0.4C41.3,13.1,41.2,13,41.1,13 M40.2,13.9
						c-0.4,0.4-1,0.7-1,1.2c0.2,0,0.4-0.1,0.6-0.2c0-0.5,0.5-0.6,0.7-1C40.4,13.9,40.3,13.9,40.2,13.9 M38.5,15.8
						C38.5,15.9,38.5,15.9,38.5,15.8c-0.1,0.1-0.1,0.1-0.1,0.1C38.3,15.8,38.5,15.7,38.5,15.8 M49.2,18c-0.1,0.1-0.1,0.2-0.1,0.2
						c0,0.2,0.2,0.2,0.3,0.2c0.1,0,0.1-0.2,0.1-0.3C49.5,18.1,49.3,18,49.2,18 M48.3,26.9c-0.1,0.2,0,0.5,0.1,0.6
						c0.1,0.1,0.4,0.1,0.5-0.1c0.1-0.2,0.1-0.4,0.1-0.5C48.9,26.5,48.3,26.5,48.3,26.9 M47.6,29.7c-0.1,0.1-0.2,0.2-0.1,0.4
						c0.1,0.2,0.2,0.2,0.4,0.2c0.1-0.1,0.1-0.3,0.1-0.5C47.8,29.8,47.7,29.7,47.6,29.7 M46,29.8c-0.1,0.1-0.1,0.2,0,0.3
						c0.1,0,0.1,0,0.1,0C46.3,29.9,46,29.7,46,29.8 M53.8,34.2l-0.3-0.1c-0.1,0-0.1,0.1-0.1,0.2c0,0.2,0.2,0.2,0.4,0.2L53.8,34.2z"
						/>
					<path fill="#B0B2B3" d="M13.1,50.7c0.1,0.2-0.1,0.4-0.1,0.5c0,0.3,0.2,0.5,0,1.1c-0.1,0.4,0,0.4-0.1,0.8
						c-0.1,0.3-0.4,0.4-0.6,0.7c-0.2,0.3-0.1,0.8-0.3,1.1c-0.1,0.2-0.3,0.4-0.4,0.7c-0.1,0.2-0.2,0.3-0.3,0.7c0,0,0,0.4-0.1,0.7
						c-0.1,0.3-0.4,0.5-0.4,0.6c-0.2,0.5-0.6,1-0.7,1.2c-0.1,0.5-0.2,0.5-0.4,1.1c-0.1,0.6,0.1,0.8-0.2,1.2c-0.3,0.2-0.6,0.6-0.7,1
						c-0.1,0.5,0,1.4,0.1,2c0,0.3-0.1,0.4-0.1,0.6c0,0.2,0.1,0.3,0.1,0.5c0,0.2,0,0.3,0,0.5c0.1,0.2,0.1,0.4,0.3,0.5
						c0.2,0,0.5,0.1,0.7,0.2s0.4,0.2,0.6,0.2c0.3-0.2,0.6-0.3,0.9-0.4c0.4-0.2,0.8-0.9,1.4-1.2c0.1-0.1,0.3,0,0.5-0.1
						c0.1-0.2,0.3-0.2,0.4-0.3s0.3,0.1,0.4-0.1c0.2-0.2,0.5-0.5,0.8-0.7c0.1-0.1,0.4-0.1,0.5-0.2c0.2-0.4,0.5-0.8,1-1
						c0.2-0.1,0.4-0.4,0.8-0.6c0.1-0.1,0.2,0,0.4-0.2c0.3-0.5,0.7-0.7,1.4-0.9c0.5-0.2,0.4-0.5,0.8-0.8c0.2-0.2,0.5-0.2,0.9-0.5
						c0.5-0.2,0.7-0.7,1.1-1c0.1-0.2,0.4-0.2,0.7-0.3c0.3-0.1,0.4-0.2,0.4-0.3c0.3-0.2,0.4,0,0.7-0.3c0.1-0.2,0.2-0.4,0.4-0.3
						c0.5,0.8-0.7,1-0.7,1.7l-0.1,0.6c-0.1,0.4-0.6,0.4-0.7,0.6c0,0.2-0.1,0.5-0.4,0.5c-0.3,0.2-0.5,0.4-0.6,0.6
						c-0.1,0.2-0.4,0.1-0.4,0.3c-0.2,0.2-0.4,0.4-0.4,0.6c-0.2,0.3-0.5,0.3-0.7,0.5c-0.3,0.3-0.7,0.5-0.8,0.8
						c-0.1,0.4,0.1,1.1-0.4,1c-0.2-0.1-0.5-0.5-0.8-0.2s-0.4,0.5-0.6,1c0,0.3-0.5,0.7-1,1.1c-0.2,0.2-0.4,0.4-0.6,0.6
						C15.4,67,15.2,67,15,67.1c-0.2,0.2-0.4,0.4-0.6,0.7c0,0.1-0.1,0.5-0.3,0.5c-0.3,0.1-0.7-0.2-0.9,0c-0.4,0.2-0.8,0.8-1.1,0.8
						c0,0-1-0.3-1.7-0.1c-0.7,0.2-1.1,0.9-1.6,1c-0.7,0-1.5,0.2-1.9-0.4c-0.2-0.2-0.5-0.2-0.7-0.3c-0.2-0.2-0.6-0.3-0.6-0.7
						c-0.1-0.9-1.2-1.2-1-2.3c0.1-0.6-0.2-1.4,0.2-1.8c0.3-0.4,0.1-0.7,0.6-1.1c0.2-0.1,0.2-0.5,0.2-1.1c0-0.3-0.3-0.5-0.1-1
						c0.2-0.4,0.7-0.7,0.8-1.1c0.1-0.8-0.2-2,0.7-2.3c0.3-0.1,0-0.2,0.1-0.7c0.1-0.2,0.3-0.4,0.4-0.7c0.1-0.2,0.1-0.5,0.2-0.7
						c0.1-0.3-0.1-0.8,0.3-0.8c0.5,0,0.4-0.1,0.7-0.7c0-0.2,0.3-0.5,0.5-0.8c0.1-0.2,0.3-0.5,0.3-0.7c-0.1-0.5,0.3-0.8,0.7-1.1
						c0.4-0.4,0.1-0.5,0.4-0.8c0.5-0.2,0.5,0.5,1,0.3c0.2-0.2,0.5-0.5,0.7-0.8c0.1-0.3-0.1-0.9,0.1-0.9
						C12.9,49.8,12.8,50.4,13.1,50.7 M24.6,56.7c-0.1,0-0.2,0.1-0.2,0.2c0,0.1,0.1,0.2,0.2,0.2c0.1,0,0.2-0.1,0.2-0.2
						C24.8,56.8,24.6,56.7,24.6,56.7 M22.7,59.1c0,0.1,0.1,0.2,0.2,0.2c0.1,0,0.1-0.2,0.1-0.2c0-0.1-0.2-0.2-0.3-0.2
						C22.6,58.9,22.7,59.1,22.7,59.1"/>
				</g>
			</g>
		</g>
	</g>
</g>
</svg>
