<?xml version="1.0" standalone="no"?>
<!DOCTYPE svg PUBLIC "-//W3C//DTD SVG 20010904//EN"
 "http://www.w3.org/TR/2001/REC-SVG-20010904/DTD/svg10.dtd">
<svg version="1.0" xmlns="http://www.w3.org/2000/svg"
 width="296.000000pt" height="296.000000pt" viewBox="0 0 296.000000 296.000000"
 preserveAspectRatio="xMidYMid meet">
<metadata>
Created by potrace 1.11, written by Peter Selinger 2001-2013
</metadata>
<g transform="translate(0.000000,296.000000) scale(0.100000,-0.100000)"
fill="#000000" stroke="none">
<path d="M1040 2275 l-395 -395 398 -398 397 -397 0 196 0 195 -200 200 -201
199 201 200 200 200 -2 198 -3 197 -395 -395z"/>
<path d="M1500 2480 l0 -195 202 -202 203 -203 -203 -203 -202 -203 2 -191 3
-191 76 72 c164 152 739 710 739 716 0 3 -96 97 -212 209 -117 112 -274 263
-348 335 -75 72 -163 158 -198 191 l-62 59 0 -194z"/>
<path d="M1295 2020 l-140 -140 143 -143 142 -142 0 283 c0 155 -1 282 -3 282
-1 0 -65 -63 -142 -140z"/>
<path d="M540 1188 c-6 -40 -11 -84 -11 -98 1 -20 -22 -89 -36 -109 -1 -2 -9
2 -17 8 -8 7 -17 8 -20 3 -4 -8 -16 -120 -19 -179 0 -7 -11 -13 -23 -13 -19 0
-24 8 -34 58 -7 31 -16 68 -21 82 -4 14 -11 60 -15 103 -3 43 -8 76 -10 75 -1
-2 -5 -26 -8 -53 -10 -87 -22 -132 -43 -164 -6 -9 -33 23 -33 40 0 11 -4 19
-9 19 -5 0 -12 34 -16 75 -4 41 -10 75 -14 75 -5 0 -13 -33 -19 -72 -6 -40
-18 -102 -27 -138 -9 -36 -22 -121 -28 -190 l-12 -125 -62 0 -63 0 0 -292 0
-293 1480 0 1480 0 0 240 0 240 -42 0 c-24 1 -78 2 -121 3 -42 1 -77 0 -77 -3
0 -3 -21 -3 -47 0 l-48 5 -6 60 c-3 33 -15 87 -25 120 l-19 60 -5 -49 c-3 -27
-10 -51 -17 -53 -6 -2 -21 24 -34 64 l-22 67 -13 -49 c-7 -28 -17 -63 -23 -78
-6 -16 -11 -53 -11 -83 0 -37 -4 -56 -14 -60 -7 -3 -69 -6 -137 -7 -94 -2
-124 1 -124 11 0 6 -3 12 -7 12 -5 0 -8 -3 -7 -7 3 -19 -75 -38 -114 -27 -9 3
-35 32 -58 65 l-40 60 -150 -7 c-137 -6 -149 -6 -149 10 0 15 -10 17 -82 14
l-83 -3 -3 27 c-3 25 -5 27 -25 17 -15 -9 -22 -9 -25 -1 -2 8 -11 8 -29 1 -32
-12 -43 1 -43 48 0 18 -3 32 -7 32 -23 -4 -33 6 -56 59 l-26 58 -93 -7 c-51
-4 -148 -10 -214 -13 l-121 -5 -12 100 c-6 55 -11 121 -11 146 0 25 -2 44 -5
41 -6 -5 -27 -200 -27 -241 1 -33 -15 -42 -61 -33 -40 7 -56 31 -58 88 -2 59
-8 78 -22 72 -21 -8 -58 52 -56 89 2 17 -3 48 -9 67 -6 19 -11 42 -10 50 7 85
-17 75 -32 -12z"/>
<path d="M201 1134 c0 -11 3 -14 6 -6 3 7 2 16 -1 19 -3 4 -6 -2 -5 -13z"/>
</g>
</svg>
